<svg width="5" height="8" viewBox="0 0 5 8" fill="none" xmlns="http://www.w3.org/2000/svg">
<path d="M4.15674 1.15137L4.39795 1.39258C4.44873 1.44336 4.48682 1.5026 4.51221 1.57031C4.5376 1.62956 4.55029 1.69727 4.55029 1.77344C4.55029 1.84961 4.5376 1.92155 4.51221 1.98926C4.48682 2.05697 4.44873 2.11198 4.39795 2.1543L2.23975 4.3125L4.39795 6.4707C4.44873 6.51302 4.48682 6.56803 4.51221 6.63574C4.5376 6.70345 4.55029 6.77539 4.55029 6.85156C4.55029 6.92773 4.5376 6.99967 4.51221 7.06738C4.48682 7.12663 4.44873 7.18164 4.39795 7.23242L4.15674 7.47363C4.10596 7.52441 4.04671 7.56673 3.979 7.60059C3.9113 7.62598 3.84359 7.63867 3.77588 7.63867C3.69971 7.63867 3.62777 7.62598 3.56006 7.60059C3.49235 7.56673 3.43311 7.52441 3.38232 7.47363L0.602051 4.69336C0.559733 4.64258 0.521647 4.58757 0.487793 4.52832C0.462402 4.46061 0.449707 4.38867 0.449707 4.3125C0.449707 4.23633 0.462402 4.16862 0.487793 4.10938C0.521647 4.04167 0.559733 3.98242 0.602051 3.93164L3.38232 1.15137C3.43311 1.10059 3.49235 1.0625 3.56006 1.03711C3.62777 1.00326 3.69971 0.986328 3.77588 0.986328C3.84359 0.986328 3.9113 1.00326 3.979 1.03711C4.04671 1.0625 4.10596 1.10059 4.15674 1.15137Z" fill="black"/>
</svg>