<svg width="12" height="12" viewBox="0 0 12 12" fill="none" xmlns="http://www.w3.org/2000/svg">
<path d="M0.268066 5.5459L5.20654 0.607422C5.2404 0.573568 5.27848 0.548177 5.3208 0.53125C5.37158 0.514323 5.42236 0.505859 5.47314 0.505859C5.52393 0.505859 5.57048 0.514323 5.61279 0.53125C5.66357 0.548177 5.70589 0.573568 5.73975 0.607422L6.53955 1.40723C6.5734 1.44108 6.5988 1.4834 6.61572 1.53418C6.64111 1.5765 6.65381 1.62305 6.65381 1.67383C6.65381 1.73307 6.64111 1.78809 6.61572 1.83887C6.5988 1.88118 6.5734 1.91927 6.53955 1.95312L3.61963 4.87305H11.5034C11.5119 4.87305 11.5161 4.87305 11.5161 4.87305C11.6092 4.87305 11.6896 4.9069 11.7573 4.97461C11.825 5.03385 11.8589 5.11003 11.8589 5.20312V6.42188C11.8589 6.51497 11.825 6.59538 11.7573 6.66309C11.6896 6.72233 11.6092 6.75195 11.5161 6.75195H3.61963L6.53955 9.68457C6.58187 9.71842 6.61149 9.76074 6.62842 9.81152C6.64535 9.85384 6.65381 9.90039 6.65381 9.95117C6.65381 10.002 6.64535 10.0527 6.62842 10.1035C6.61149 10.1543 6.58187 10.1966 6.53955 10.2305L5.73975 11.0176C5.70589 11.0514 5.66357 11.0768 5.61279 11.0938C5.57048 11.1107 5.52393 11.1191 5.47314 11.1191C5.42236 11.1191 5.37158 11.1107 5.3208 11.0938C5.27848 11.0768 5.2404 11.0514 5.20654 11.0176L0.268066 6.0791C0.234212 6.04525 0.20459 6.00716 0.179199 5.96484C0.162272 5.91406 0.153809 5.86328 0.153809 5.8125C0.153809 5.76172 0.162272 5.71517 0.179199 5.67285C0.20459 5.62207 0.234212 5.57975 0.268066 5.5459Z" fill="black"/>
</svg>
