<svg width="13" height="13" viewBox="0 0 13 13" fill="none" xmlns="http://www.w3.org/2000/svg">
<path d="M3.33252 4.66211L3.58643 4.4209C3.62874 4.37012 3.68376 4.33203 3.75146 4.30664C3.81917 4.27279 3.89111 4.25586 3.96729 4.25586C4.04346 4.25586 4.11117 4.27279 4.17041 4.30664C4.23812 4.33203 4.29736 4.37012 4.34814 4.4209L6.49365 6.56641L8.65186 4.4209C8.70264 4.37012 8.75765 4.33203 8.81689 4.30664C8.8846 4.27279 8.95654 4.25586 9.03271 4.25586C9.10889 4.25586 9.18083 4.27279 9.24854 4.30664C9.31624 4.33203 9.37549 4.37012 9.42627 4.4209L9.65479 4.66211C9.70557 4.71289 9.74365 4.77214 9.76904 4.83984C9.8029 4.89909 9.81982 4.9668 9.81982 5.04297C9.81982 5.11914 9.8029 5.19108 9.76904 5.25879C9.74365 5.3265 9.70557 5.38151 9.65479 5.42383L6.88721 8.2041C6.83643 8.25488 6.77718 8.2972 6.70947 8.33105C6.64176 8.35645 6.57406 8.36914 6.50635 8.36914C6.43018 8.36914 6.35824 8.35645 6.29053 8.33105C6.22282 8.2972 6.16357 8.25488 6.11279 8.2041L3.33252 5.42383C3.2902 5.38151 3.25212 5.3265 3.21826 5.25879C3.19287 5.19108 3.18018 5.11914 3.18018 5.04297C3.18018 4.9668 3.19287 4.89909 3.21826 4.83984C3.25212 4.77214 3.2902 4.71289 3.33252 4.66211Z" fill="black"/>
</svg>
