<svg width="14" height="15" viewBox="0 0 14 15" fill="none" xmlns="http://www.w3.org/2000/svg">
<path d="M7 14.875C7.96615 14.875 8.87305 14.6927 9.7207 14.3281C10.5775 13.9635 11.3203 13.4668 11.9492 12.8379C12.5872 12.1999 13.0885 11.4525 13.4531 10.5957C13.8177 9.74805 14 8.84115 14 7.875C14 6.90885 13.8177 6.00195 13.4531 5.1543C13.0885 4.29753 12.5872 3.55469 11.9492 2.92578C11.3203 2.28776 10.5775 1.78646 9.7207 1.42188C8.87305 1.05729 7.96615 0.875 7 0.875C6.03385 0.875 5.12695 1.05729 4.2793 1.42188C3.42253 1.78646 2.67513 2.28776 2.03711 2.92578C1.4082 3.55469 0.911458 4.29753 0.546875 5.1543C0.182292 6.00195 0 6.90885 0 7.875C0 8.84115 0.182292 9.74805 0.546875 10.5957C0.911458 11.4525 1.4082 12.1999 2.03711 12.8379C2.67513 13.4668 3.42253 13.9635 4.2793 14.3281C5.12695 14.6927 6.03385 14.875 7 14.875ZM6.28906 3.97852C6.28906 3.91471 6.31185 3.86003 6.35742 3.81445C6.40299 3.76888 6.45768 3.74609 6.52148 3.74609H7.45117C7.51497 3.74609 7.56966 3.76888 7.61523 3.81445C7.66081 3.86003 7.68359 3.91471 7.68359 3.97852V8.50391C7.68359 8.56771 7.66081 8.6224 7.61523 8.66797C7.56966 8.71354 7.51497 8.73633 7.45117 8.73633H6.53516C6.47135 8.73633 6.41667 8.71354 6.37109 8.66797C6.32552 8.6224 6.30273 8.56771 6.30273 8.50391L6.28906 3.97852ZM7 9.74805C7.23698 9.75716 7.4375 9.84375 7.60156 10.0078C7.76562 10.1719 7.84766 10.3724 7.84766 10.6094C7.84766 10.8464 7.76107 11.0469 7.58789 11.2109C7.42383 11.375 7.22331 11.457 6.98633 11.457C6.75846 11.457 6.55794 11.375 6.38477 11.2109C6.2207 11.0469 6.13867 10.8464 6.13867 10.6094C6.13867 10.3724 6.2207 10.1719 6.38477 10.0078C6.55794 9.83464 6.76302 9.74805 7 9.74805Z" fill="#555555"/>
</svg>
