<svg width="16" height="16" viewBox="0 0 16 16" fill="none" xmlns="http://www.w3.org/2000/svg">
<path d="M8 16C9.10417 16 10.1406 15.7917 11.1094 15.375C12.0885 14.9583 12.9375 14.3906 13.6562 13.6719C14.3854 12.9427 14.9583 12.0885 15.375 11.1094C15.7917 10.1406 16 9.10417 16 8C16 6.89583 15.7917 5.85938 15.375 4.89062C14.9583 3.91146 14.3854 3.0625 13.6562 2.34375C12.9375 1.61458 12.0885 1.04167 11.1094 0.625C10.1406 0.208333 9.10417 0 8 0C6.89583 0 5.85938 0.208333 4.89062 0.625C3.91146 1.04167 3.05729 1.61458 2.32812 2.34375C1.60938 3.0625 1.04167 3.91146 0.625 4.89062C0.208333 5.85938 0 6.89583 0 8C0 9.10417 0.208333 10.1406 0.625 11.1094C1.04167 12.0885 1.60938 12.9427 2.32812 13.6719C3.05729 14.3906 3.91146 14.9583 4.89062 15.375C5.85938 15.7917 6.89583 16 8 16ZM7.1875 3.54688C7.1875 3.47396 7.21354 3.41146 7.26562 3.35938C7.31771 3.30729 7.38021 3.28125 7.45312 3.28125H8.51562C8.58854 3.28125 8.65104 3.30729 8.70312 3.35938C8.75521 3.41146 8.78125 3.47396 8.78125 3.54688V8.71875C8.78125 8.79167 8.75521 8.85417 8.70312 8.90625C8.65104 8.95833 8.58854 8.98438 8.51562 8.98438H7.46875C7.39583 8.98438 7.33333 8.95833 7.28125 8.90625C7.22917 8.85417 7.20312 8.79167 7.20312 8.71875L7.1875 3.54688ZM8 10.1406C8.27083 10.151 8.5 10.25 8.6875 10.4375C8.875 10.625 8.96875 10.8542 8.96875 11.125C8.96875 11.3958 8.86979 11.625 8.67188 11.8125C8.48438 12 8.25521 12.0938 7.98438 12.0938C7.72396 12.0938 7.49479 12 7.29688 11.8125C7.10938 11.625 7.01562 11.3958 7.01562 11.125C7.01562 10.8542 7.10938 10.625 7.29688 10.4375C7.49479 10.2396 7.72917 10.1406 8 10.1406Z" fill="#F53C3C"/>
</svg>
